<svg clip-rule="evenodd" fill-rule="evenodd" stroke-linejoin="round" stroke-miterlimit="2" viewBox="0 0 299 216" xmlns="http://www.w3.org/2000/svg"><g transform="matrix(.278031 0 0 .855135 -22.4749 317.56)"><path d="m80.836-371.357h1075.34v252.336h-1075.34z" fill="none"/><path d="m674.452 299.923-176.596-16.96v94.528l176.302-15.171z" transform="matrix(2.61407 0 0 1.60823 -756.348 -779.314)"/><path d="m498.998 282.698-77.07 8.349-.036 78.904 77.106 6.887z" fill="#00ffa8" transform="matrix(3.51837 0 0 1.61487 -1208.04 -780.749)"/><path d="m419.457 48.669h232.169v145.98h-232.169z" fill="none" transform="matrix(4.19856 0 0 1.46454 -1603.97 -425.269)"/><path d="m493.64 48.601v-2.8h13v2.8c-.01 1.249.124 2.495.4 3.713.43 1.817 1.204 3.355 2.322 4.615.361.406.755.781 1.178 1.122 2.291 1.85 5.305 2.885 9.043 3.105.519.03 1.038.045 1.557.045 1.188.005 2.374-.066 3.552-.214 2.77-.361 4.955-1.178 6.556-2.452.014-.011.028-.023.042-.034.959-.753 1.757-1.689 2.348-2.755.679-1.275 1.024-2.701 1.002-4.145.006-.705-.078-1.409-.25-2.093-.243-.972-.724-1.867-1.4-2.607-.534-.574-1.14-1.078-1.803-1.498-.584-.377-1.238-.724-1.964-1.04-.34-.148-.684-.285-1.033-.412-1.608-.587-3.479-1.144-5.615-1.673-.676-.167-1.354-.326-2.035-.477l-2.3-.5c-4.8-1.067-8.916-2.417-12.35-4.05-1.528-.715-2.97-1.6-4.301-2.637-1.385-1.082-2.598-2.368-3.599-3.813-.979-1.45-1.691-3.063-2.105-4.763-.336-1.321-.54-2.757-.614-4.308-.021-.443-.031-.886-.031-1.329-.012-1.825.198-3.646.626-5.42.479-1.971 1.3-3.842 2.424-5.53 1.692-2.501 3.958-4.56 6.607-6.007.649-.362 1.314-.694 1.993-.993 2.128-.924 4.364-1.578 6.654-1.947 1.983-.333 4.097-.5 6.343-.503h.053c5 0 9.45.85 13.35 2.55 2.69 1.143 5.114 2.831 7.118 4.957.766.822 1.462 1.706 2.082 2.643 1.311 2.009 2.238 4.243 2.732 6.59.387 1.747.592 3.631.616 5.654.002.135.002.271.002.406v3h-13v-3c.005-.859-.057-1.717-.183-2.567-.142-.924-.366-1.766-.674-2.525-.19-.473-.421-.927-.693-1.358-.959-1.51-2.351-2.697-3.994-3.407-.15-.068-.302-.132-.456-.193-1.933-.767-4.233-1.15-6.9-1.15-1.044-.005-2.088.055-3.126.178-2.45.303-4.358.994-5.724 2.072-1.662 1.281-2.69 3.222-2.816 5.317-.023.277-.034.555-.034.833-.005.728.085 1.453.268 2.157.213.81.581 1.572 1.082 2.243.479.628 1.046 1.182 1.684 1.647.539.399 1.149.767 1.831 1.103.177.087.355.17.535.25.731.322 1.478.608 2.236.858 1.36.453 2.914.867 4.664 1.242l2.3.5c4.627.987 8.697 2.231 12.21 3.732.282.12.562.243.84.368 1.647.73 3.21 1.634 4.665 2.695 1.51 1.103 2.852 2.418 3.985 3.905 2.067 2.733 3.1 6.233 3.1 10.5.018 2.216-.31 4.422-.972 6.537-.533 1.67-1.3 3.257-2.278 4.713-1.734 2.561-4.018 4.703-6.684 6.271-.814.488-1.654.932-2.516 1.329-3.938 1.821-8.583 2.737-13.935 2.75-.038 0-.076 0-.115 0-2.483.012-4.961-.215-7.401-.68-2.381-.455-4.698-1.201-6.899-2.22-2.662-1.218-5.074-2.922-7.112-5.025-.964-1.008-1.83-2.104-2.588-3.275-1.59-2.489-2.651-5.279-3.114-8.196-.262-1.588-.392-3.195-.386-4.804zm76.8 22.8h-12.6v-49.6h12.6zm-9.482-55.967c-.953-.374-1.825-.929-2.568-1.633-1.319-1.232-2.136-2.911-2.292-4.709-.039-.362-.058-.727-.058-1.091-.008-.904.12-1.804.381-2.67.37-1.198 1.049-2.278 1.969-3.13 1.511-1.425 3.515-2.213 5.591-2.199.053-.001.106-.001.159-.001.961-.009 1.917.133 2.833.421 1.112.359 2.127.967 2.967 1.779 1.534 1.467 2.3 3.4 2.3 5.8.009.895-.114 1.787-.365 2.647-.357 1.203-1.024 2.29-1.935 3.153-1.34 1.283-3.092 2.051-4.944 2.166-.284.023-.57.034-.856.034-1.086.012-2.166-.181-3.182-.567zm21.482 28.353v-16.419c-.02-2.688.248-5.371.8-8.001.759-3.486 2.058-6.527 3.899-9.123.806-1.138 1.72-2.195 2.729-3.157 3.309-3.115 7.409-5.263 11.853-6.21 2.719-.603 5.497-.897 8.281-.876 2.629-.02 5.253.241 7.826.778 3.318.718 6.222 1.935 8.713 3.65 1.06.728 2.051 1.553 2.96 2.463 3.058 3.093 5.167 6.999 6.076 11.253.561 2.514.834 5.083.814 7.659v.586h-12.705v-.977c.012-1.541-.175-3.076-.557-4.568-.51-1.993-1.474-3.842-2.815-5.401-1.341-1.529-3.094-2.641-5.049-3.201-1.539-.473-3.293-.709-5.263-.709-1.53-.013-3.055.169-4.539.542-2.381.592-4.54 1.864-6.212 3.661-2.606 2.802-3.909 6.613-3.909 11.435v16.811c0 4.756 1.303 8.552 3.909 11.386 2.607 2.835 6.19 4.252 10.751 4.252 1.324.01 2.646-.116 3.944-.377 1.555-.325 2.921-.862 4.097-1.609.852-.54 1.617-1.205 2.271-1.972 1.736-2.055 2.843-4.568 3.187-7.236.125-.889.187-1.787.185-2.685v-1.759h12.705v1.368c.022 2.658-.27 5.309-.87 7.898-.933 4.164-3.019 7.981-6.02 11.014-2.83 2.787-6.35 4.772-10.198 5.754-2.35.639-4.925 1.009-7.723 1.11-.526.018-1.052.027-1.578.027-2.842.022-5.678-.285-8.45-.915-4.381-.962-8.419-3.095-11.684-6.171-4.952-4.724-7.428-11.484-7.428-20.281z" fill="#fefefe" transform="matrix(2.75238 0 0 .894883 -777.938 -277.008)"/></g></svg>